<svg width="101" height="14" viewBox="0 0 101 14" fill="none" xmlns="http://www.w3.org/2000/svg">
<path d="M15.3413 5.00773C15.3244 6.34206 16.5305 7.08673 17.439 7.52943C18.3725 7.98371 18.6861 8.27498 18.6825 8.68116C18.6754 9.3029 17.9379 9.57725 17.2475 9.58794C16.0432 9.60664 15.3431 9.26281 14.7864 9.00272L14.3526 11.0327C14.9111 11.2901 15.9453 11.5146 17.0177 11.5244C19.535 11.5244 21.1819 10.2818 21.1909 8.35515C21.2007 5.91005 17.8087 5.77466 17.8319 4.68172C17.8399 4.35036 18.1561 3.99673 18.8491 3.90677C19.192 3.86134 20.1389 3.8266 21.2122 4.32096L21.6336 2.35687C21.0564 2.14666 20.3144 1.94535 19.3907 1.94535C17.0213 1.94535 15.3547 3.20486 15.3413 5.00773ZM25.682 2.11459C25.2224 2.11459 24.8349 2.3827 24.6621 2.79423L21.0662 11.3801H23.5816L24.0822 9.99679H27.1562L27.4466 11.3801H29.6636L27.7289 2.11459H25.682ZM26.0338 4.61758L26.7598 8.09683H24.7717L26.0338 4.61758ZM12.2914 2.11459L10.3086 11.3801H12.7056L14.6875 2.11459H12.2914ZM8.74535 2.11459L6.25037 8.42106L5.24115 3.05878C5.12268 2.4602 4.65504 2.11459 4.13574 2.11459H0.0570078L0 2.3836C0.837302 2.56531 1.78862 2.85836 2.36493 3.17191C2.71767 3.36342 2.81832 3.53087 2.93412 3.98604L4.84566 11.3801H7.37894L11.2626 2.11459H8.74535Z" fill="#1434CB"/>
<path d="M51.5038 1.44043H45.6113V12.03H51.5038V1.44043Z" fill="#FF5F00"/>
<path d="M45.9869 6.73614C45.9858 5.71615 46.2168 4.70927 46.6624 3.79177C47.108 2.87426 47.7566 2.07019 48.559 1.44042C47.5655 0.659666 46.3724 0.17416 45.1161 0.0393935C43.8597 -0.0953732 42.5908 0.126036 41.4544 0.678317C40.3179 1.2306 39.3597 2.09147 38.6894 3.16254C38.0191 4.23361 37.6636 5.47166 37.6636 6.73521C37.6636 7.99875 38.0191 9.23681 38.6894 10.3079C39.3597 11.379 40.3179 12.2398 41.4544 12.7921C42.5908 13.3444 43.8597 13.5658 45.1161 13.431C46.3724 13.2963 47.5655 12.8108 48.559 12.03C47.7568 11.4004 47.1084 10.5966 46.6628 9.67949C46.2172 8.76233 45.986 7.75583 45.9869 6.73614Z" fill="#EB001B"/>
<path d="M59.4545 6.73594C59.4545 7.99958 59.0989 9.23772 58.4284 10.3088C57.758 11.3799 56.7997 12.2408 55.6631 12.793C54.5265 13.3452 53.2574 13.5665 52.001 13.4315C50.7446 13.2965 49.5515 12.8108 48.5581 12.0298C49.3599 11.3997 50.0081 10.5957 50.4539 9.67846C50.8996 8.76125 51.1312 7.75479 51.1312 6.73501C51.1312 5.71523 50.8996 4.70877 50.4539 3.79156C50.0081 2.87435 49.3599 2.07035 48.5581 1.44022C49.5515 0.659224 50.7446 0.173482 52.001 0.038522C53.2574 -0.0964382 54.5265 0.124828 55.6631 0.67703C56.7997 1.22923 57.758 2.09009 58.4284 3.16119C59.0989 4.2323 59.4545 5.47043 59.4545 6.73407V6.73594Z" fill="#F79E1B"/>
<path d="M97.1189 1.94531H90.7534C91.1242 4.04654 93.1637 6.02417 95.3885 6.02417H100.456C100.518 5.83876 100.518 5.52976 100.518 5.34435C100.518 3.49033 98.9729 1.94531 97.1189 1.94531Z" fill="url(#paint0_linear_23_164)"/>
<path d="M91.3091 6.39551V11.525H94.3991V8.80573H97.1184C98.6016 8.80573 99.8994 7.75513 100.332 6.39551H91.3091Z" fill="#4FAD50"/>
<path d="M80.4331 1.94531V11.4626H83.1524C83.1524 11.4626 83.8322 11.4626 84.203 10.7828C86.057 7.13658 86.6132 6.02417 86.6132 6.02417H86.984V11.4626H90.074V1.94531H87.3548C87.3548 1.94531 86.675 2.00712 86.3042 2.62512C84.7592 5.77696 83.894 7.38378 83.894 7.38378H83.5231V1.94531H80.4331Z" fill="#4FAD50"/>
<path d="M67.4546 11.5251V2.00781H70.5446C70.5446 2.00781 71.4099 2.00781 71.9043 3.36743C73.1403 6.95187 73.2639 7.44628 73.2639 7.44628C73.2639 7.44628 73.5111 6.58107 74.6235 3.36743C75.1179 2.00781 75.9831 2.00781 75.9831 2.00781H79.0732V11.5251H75.9831V6.39567H75.6123L73.8819 11.5251H72.5223L70.7919 6.39567H70.421V11.5251H67.4546Z" fill="#4FAD50"/>
<defs>
<linearGradient id="paint0_linear_23_164" x1="90.6041" y1="4.34008" x2="100.183" y2="4.34008" gradientUnits="userSpaceOnUse">
<stop stop-color="#00B4E6"/>
<stop offset="1" stop-color="#088CCB"/>
</linearGradient>
</defs>
</svg>
