<svg width="98" height="14" viewBox="0 0 98 14" fill="none" xmlns="http://www.w3.org/2000/svg">
<g clip-path="url(#clip0_23_182)">
<path d="M17.3937 0H15.0578V11.8455H17.3937V0Z" fill="black"/>
<path d="M12.3744 0.662837H10.0385V12.5081H12.3744V0.662837Z" fill="black"/>
<path d="M7.35518 1.40283H5.01925V13.2503H7.35518V1.40283Z" fill="black"/>
<path d="M2.33593 2.15104H0L8.90096e-06 14H2.33594L2.33593 2.15104Z" fill="black"/>
<path d="M79.0895 6.31123L75.3284 2.12942H73.1296V11.8118H75.4253V5.63424L78.8591 9.29421H79.2834L82.6582 5.63424V11.8118H84.954V2.12942H82.7552L79.0895 6.31123Z" fill="black"/>
<path d="M95.8914 2.12942L90.2012 8.42259V2.12942H87.9054V11.8118H90.0087L95.6989 5.51859V11.8118H97.9947V2.12942H95.8914Z" fill="black"/>
<path d="M60.764 5.67232C60.764 7.21388 61.6069 8.42823 62.901 8.93738L60.4745 11.8118H63.2845L65.4918 9.1969H67.8803V11.8118H70.176V2.12942H64.3312C62.1521 2.12942 60.764 3.6202 60.764 5.67232ZM67.8817 4.26193V7.12503H64.757C63.7144 7.12503 63.1553 6.54395 63.1553 5.69207C63.1553 4.84019 63.7341 4.25911 64.757 4.25911L67.8817 4.26193Z" fill="black"/>
<path d="M50.0957 4.06589C49.9552 7.39582 49.2527 9.54526 47.8772 9.54526H47.533V11.8696L47.8997 11.8893C50.6577 12.0431 52.1821 9.62284 52.4322 4.33668H56.0599V11.8118H58.3514V2.12942H50.1729L50.0957 4.06589Z" fill="black"/>
<path d="M41.4536 1.99414C38.3486 1.99414 36.1147 4.14358 36.1147 6.97001C36.1147 9.89375 38.5453 11.967 41.4536 11.967C44.4828 11.967 46.8362 9.7781 46.8362 6.97001C46.8362 4.16191 44.4828 1.99414 41.4536 1.99414ZM41.4536 9.6427C39.6988 9.6427 38.5032 8.50028 38.5032 6.97001C38.5032 5.40165 39.7002 4.29026 41.4536 4.29026C43.2071 4.29026 44.4435 5.45242 44.4435 6.97001C44.4435 8.48759 43.1902 9.6427 41.4536 9.6427Z" fill="black"/>
<path d="M33.6799 2.14768H25.5772L25.5 4.08415C25.3848 6.87391 24.657 9.52686 23.2815 9.56494L22.645 9.58468V14.0002L24.9605 13.9956V11.8131H33.0041V13.9956H35.3392V9.56494H33.6799V2.14768ZM31.3841 9.56494H26.4849C27.3138 8.30687 27.7578 6.48605 27.8351 4.35636H31.3841V9.56494Z" fill="black"/>
</g>
<defs>
<clipPath id="clip0_23_182">
<rect width="98" height="14" fill="white"/>
</clipPath>
</defs>
</svg>
